<?xml version="1.0" encoding="UTF-8"?>
<svg id="Livello_1" xmlns="http://www.w3.org/2000/svg" version="1.1" viewBox="0 0 1881.49 60.24">
  <!-- Generator: Adobe Illustrator 29.0.1, SVG Export Plug-In . SVG Version: 2.1.0 Build 192)  -->
  <defs>
    <style>
      .st0 {
        fill: #ececec;
      }
    </style>
  </defs>
  <g>
    <path class="st0" d="M83.23,3.75v15.01c0,2.07-1.68,3.75-3.75,3.75h-15.03c-2.07,0-3.75-1.68-3.75-3.75v-7.51c0-2.07-1.68-3.75-3.75-3.75h-22.52c-2.07,0-3.75,1.68-3.75,3.75v7.44c0,.29.04.56.1.83.31,1.43,1.43,2.57,2.86,2.86.08.04.17.04.25.06.19.04.37.06.58.06h7.46c2.07,0,3.75,1.68,3.75,3.75v7.53c0,2.07-1.68,3.75-3.75,3.75h-7.51c-2.07,0-3.75-1.68-3.75-3.75v-7.03c.04-.15.04-.29.04-.44,0-.17,0-.31-.04-.46-.19-1.68-1.49-3.05-3.19-3.3-.19-.04-.37-.06-.58-.06h-15.01c-2.07,0-3.75-1.68-3.75-3.75V3.75C8.13,1.68,9.81,0,11.89,0h67.59c2.07,0,3.75,1.68,3.75,3.75Z"/>
    <path class="st0" d="M83.22,41.46v15.03c0,2.07-1.68,3.75-3.75,3.75H11.88c-2.07,0-3.75-1.68-3.75-3.75v-15.03c0-2.07,1.68-3.75,3.75-3.75h15.03c2.07,0,3.75,1.68,3.75,3.75v7.51c0,2.07,1.68,3.75,3.75,3.75h22.52c2.07,0,3.75-1.68,3.75-3.75v-7.03c0-.12.02-.27.02-.41s-.02-.29-.02-.41c-.02-.15-.04-.27-.08-.41-.31-1.43-1.43-2.57-2.88-2.86-.08-.04-.17-.04-.25-.06-.19-.04-.37-.06-.58-.06h-7.46c-2.07,0-3.75-1.68-3.75-3.75v-7.51c0-2.07,1.68-3.75,3.75-3.75h7.51c2.07,0,3.75,1.68,3.75,3.75v7.51c0,.29.04.56.1.83.31,1.43,1.43,2.57,2.86,2.86.08.04.17.04.25.06.19.04.37.06.58.06s.39-.02.58-.06h14.41c2.07,0,3.75,1.68,3.75,3.75Z"/>
  </g>
  <path class="st0" d="M166.92,41.38v15.01c0,2.07-1.68,3.75-3.75,3.75h-67.55c-2.07,0-3.75-1.68-3.75-3.75V3.75C91.87,1.68,93.55,0,95.62,0h15.01c2.07,0,3.75,1.68,3.75,3.75v15.01c0,2.07-1.68,3.75-3.75,3.75h-7.51c-2.07,0-3.75,1.68-3.75,3.75v7.6c0,2.07,1.68,3.75,3.75,3.75h7.51c2.07,0,3.75,1.68,3.75,3.75v7.51c0,2.07,1.68,3.75,3.75,3.75h22.52c2.07,0,3.75-1.68,3.75-3.75v-7.51c0-2.07,1.68-3.75,3.75-3.75h15.01c2.07,0,3.75,1.68,3.75,3.75Z"/>
  <path class="st0" d="M1708.73,0H179.33c-2.07,0-3.75,1.68-3.75,3.75v52.64c0,2.07,1.68,3.75,3.75,3.75h1529.4c2.07,0,3.75-1.68,3.75-3.75V3.75c0-2.07-1.68-3.75-3.75-3.75ZM1704.97,33.88c0,2.07-1.68,3.75-3.75,3.75h-7.51c-2.07,0-3.75,1.68-3.75,3.75v7.51c0,2.07-1.68,3.75-3.75,3.75H201.84c-2.07,0-3.75-1.68-3.75-3.75v-7.51c0-2.07-1.68-3.75-3.75-3.75h-7.51c-2.07,0-3.75-1.68-3.75-3.75v-7.61c0-2.07,1.68-3.75,3.75-3.75h7.51c2.07,0,3.75-1.68,3.75-3.75v-7.51c0-2.07,1.68-3.75,3.75-3.75h1484.36c2.07,0,3.75,1.68,3.75,3.75v7.51c0,2.07,1.68,3.75,3.75,3.75h7.51c2.07,0,3.75,1.68,3.75,3.75v7.61Z"/>
  <path class="st0" d="M1801.7,3.75v52.63c0,2.07,1.68,3.75,3.75,3.75h67.55c2.07,0,3.75-1.68,3.75-3.75V3.75c0-2.07-1.68-3.75-3.75-3.75h-67.55c-2.07,0-3.75,1.68-3.75,3.75ZM1854.24,41.38v7.51c0,2.07-1.68,3.75-3.75,3.75h-22.52c-2.07,0-3.75-1.68-3.75-3.75v-7.51c0-2.07-1.68-3.75-3.75-3.75h-7.51c-2.07,0-3.75-1.68-3.75-3.75v-7.6c0-2.07,1.68-3.75,3.75-3.75h7.51c2.07,0,3.75-1.68,3.75-3.75v-7.51c0-2.07,1.68-3.75,3.75-3.75h22.52c2.07,0,3.75,1.68,3.75,3.75v7.51c0,2.07,1.68,3.75,3.75,3.75h7.51c2.07,0,3.75,1.68,3.75,3.75v7.6c0,2.07-1.68,3.75-3.75,3.75h-7.51c-2.07,0-3.75,1.68-3.75,3.75Z"/>
  <path class="st0" d="M1794.19,3.75v52.64c0,2.07-1.68,3.75-3.75,3.75h-15.01c-2.07,0-3.75-1.68-3.75-3.75v-15.01c0-2.07,1.68-3.75,3.75-3.75h7.51c2.07,0,3.75-1.68,3.75-3.75v-7.61c0-2.07-1.68-3.75-3.75-3.75h-7.51c-2.05,0-3.79-1.64-3.75-3.68.04-2.2-1.82-3.98-4.05-3.81-1.99.15-3.46,1.97-3.46,3.97v7.28c0,2.07-1.68,3.75-3.75,3.75h-7.51c-2.07,0-3.75-1.68-3.75-3.75v-7.28c0-2-1.46-3.82-3.46-3.97-2.23-.17-4.09,1.61-4.05,3.81.04,2.05-1.7,3.68-3.75,3.68h-6.59c-3,0-4.68,1.68-4.68,3.75v7.61c0,2.07,1.68,3.75,3.75,3.75h7.51c2.07,0,3.75,1.68,3.75,3.75v15.01c0,2.07-1.68,3.75-3.75,3.75h-15.01c-2.07,0-3.75-1.68-3.75-3.75V3.75c0-2.07,1.68-3.75,3.75-3.75h17.97c2.16,0,3.91,1.75,3.91,3.91v2.35c0,2.14,1.72,3.86,3.84,3.86h18.43c2.13,0,3.86-1.73,3.86-3.86v-2.35c0-2.16,1.75-3.91,3.91-3.91h15.64c2.07,0,3.75,1.68,3.75,3.75Z"/>
  <rect class="st0" x="37.97" y="22.52" width="15.96" height="15.03"/>
</svg>